<?xml version="1.0" encoding="UTF-8"?>
<svg version="1.1" viewBox="0 0 2048 1139" width="1280" height="1280" xmlns="http://www.w3.org/2000/svg">
<path transform="translate(0)" d="m0 0h2048v1139h-2048z" fill="#FAFAFA"/>
<path transform="translate(1056)" d="m0 0h992v1139h-995v-1l34-3 40-6 24-5 21-5 30-9 23-8 29-12 24-11 22-12 18-10 20-13 16-11 15-11 14-11 13-11 14-12 37-37 9-11 12-14 10-13 11-15 18-27 14-24 12-22 13-28 12-30 12-36 8-30 6-29 5-33 2-18 2-39v-33l-3-41-5-35-5-26-9-36-12-37-13-32-12-26-12-23-16-27-15-22-10-14-10-13-8-10-13-15-9-10-11-11-7-8-8-7-10-10-11-9-14-12-13-10-17-12-13-9-19-12-21-12-27-14-27-12-31-12-32-10-32-8-31-6-38-5-23-2z" fill="#FAFAFA"/>
<path transform="translate(0)" d="m0 0h991v1l-31 3-35 5-30 6-24 6-29 9-22 8-29 12-25 12-28 15-18 11-18 12-17 12-18 14-13 11-14 12-13 13-8 7-9 10-10 10-9 11-9 10-6 8-10 13-14 20-11 17-12 20-12 22-13 27-14 34-13 40-7 26-7 35-5 35-2 26-1 15v38l2 35 4 35 7 37 8 32 13 40 12 30 12 26 13 25 14 24 10 15 14 20 10 13 11 14 13 15 9 10 34 34 11 9 12 11 11 8 13 10 19 13 15 10 22 13 22 12 28 13 29 12 35 12 34 9 34 7 36 5 35 3v1h-997z" fill="#FAFAFA"/>
<path transform="translate(991)" d="m0 0h65l40 4 38 6 39 9 36 11 24 9 26 11 29 14 27 15 22 14 19 13 12 9 14 11 13 11 14 12 12 12 8 7 9 10 11 11 9 11 9 10 12 16 11 15 20 30 15 26 15 29 13 30 10 27 9 28 9 36 6 31 5 40 2 31v33l-2 39-5 40-6 31-9 36-12 36-12 31-10 22-10 19-12 22-13 21-11 16-12 17-10 12-8 10-12 14-9 10-35 35-11 9-14 12-13 10-18 13-15 10-19 12-25 14-16 8-23 11-35 14-34 11-23 6-28 6-30 5-23 3-26 2h-56l-44-4-32-5-37-8-29-8-32-11-29-12-24-11-19-10-21-12-22-14-18-13-14-10-10-8-11-9-12-11-8-7-36-36-9-11-11-13-11-14-12-17-7-10-13-20-14-25-12-23-13-29-11-29-11-34-8-32-7-37-4-35-2-35v-38l2-32 4-32 7-38 7-28 8-26 9-26 10-24 11-24 14-27 12-20 13-20 12-17 12-16 9-11 9-10 9-11 14-14 7-8 12-11 9-9 11-9 14-12 16-12 17-12 15-10 18-11 18-10 23-12 17-8 40-16 31-10 27-7 28-6 33-5 29-3zm5 46-27 2-36 5-34 7-35 10-29 10-26 11-25 12-22 12-23 14-16 11-19 14-16 13-14 12-17 16-17 17-7 8-10 11-11 14-13 17-12 17-13 21-12 21-12 23-11 25-11 29-9 29-8 32-6 33-3 25-2 27v48l2 30 4 31 6 31 7 28 9 29 12 31 13 29 12 23 15 25 12 18 13 18 13 16 9 11 11 12 16 17 9 9 8 7 13 12 14 11 15 12 16 11 17 11 15 9 18 10 16 8 21 10 31 12 27 9 30 8 36 7 30 4 31 2h45l29-2 32-4 36-7 30-8 36-12 34-14 30-15 24-14 19-12 20-14 25-20 10-9 8-7 12-11 14-14 7-8 12-13 11-14 12-15 11-16 13-20 12-21 11-20 12-26 14-36 9-29 8-32 6-35 4-34 1-21v-41l-2-30-4-33-5-26-7-29-12-39-11-27-9-20-14-28-16-27-12-18-13-18-12-15-9-11-12-13-14-15-12-12-8-7-13-12-14-11-17-13-17-12-19-12-23-13-23-12-25-11-26-10-25-8-30-8-29-6-36-5-27-2z" fill="#2C2C2C"/>
<path transform="translate(1014,285)" d="m0 0h31l23 3 21 6 16 7 13 7 16 12 14 14 10 14 10 19 5 15 5 25v33l-3 18-6 18-8 16-8 15-19 28-10 13-12 17-13 18-13 17-14 21-6 13-3 11-1 13-1 35-2 6-3 2h-60l-4-2-1-2-1-21v-18l2-23 4-16 7-16 12-18 13-18 14-19 13-18 14-19 16-23 12-21 5-12 3-9 2-13v-16l-3-17-5-12-6-10-9-10-10-7-12-6-14-4-8-1h-23l-15 3-12 5-10 6-9 7-11 14-8 16-5 15-4 14-4 3-18-2-38-7-5-3-1-1v-9l5-21 7-19 8-16 9-13 12-14 8-8 13-10 16-9 16-7 17-5 18-3z" fill="#2C2C2C"/>
<path transform="translate(990,763)" d="m0 0h72l2 2 1 6v71l-2 5-4 3h-66l-5-3-2-3v-75z" fill="#2C2C2C"/>
</svg>
